#!OML:ASF F:\VICON\USERDATA\INSTALL\Justin_Nancy\Justin_Nancy.ASF
:FULLY-SPECIFIED
:DEGREES
384
root 1.54491 17.3811 16.5656 -0.715771 37.0454 -4.18315
lowerback 6.1005 1.25498 3.57342
upperback 0.486871 2.01754 2.68793
thorax -2.89353 0.983178 0.596853
lowerneck -16.7335 -3.57446 -9.64187
upperneck 24.1734 -3.2971 4.23861
head 10.8075 -1.83617 2.68902
rclavicle 2.20154e-014 2.94201e-014
rhumerus -29.3231 -9.90331 -78.4156
rradius 39.5552
rwrist 1.93575
rhand -14.6361 14.2777
rfingers 7.12502
rthumb 11.5157 -15.3859
lclavicle 2.20154e-014 2.94201e-014
lhumerus -36.4186 13.7531 83.5116
lradius 24.3575
lwrist -12.7061
lhand -13.9518 22.4486
lfingers 7.12502
lthumb 12.1756 52.0743
rfemur 5.30298 3.03794 30.2996
rtibia 14.8217
rfoot -14.3804 -2.6563
rtoes 6.84052
lfemur -30.8747 -2.44974 -14.5655
ltibia 27.1723
lfoot -9.05629 9.59629
ltoes -4.7793
385
root 1.64395 17.3732 16.6794 -0.50233 37.0034 -4.12572
lowerback 5.81601 1.21598 3.50928
upperback 0.445802 1.94744 2.70633
thorax -2.7803 0.950364 0.663675
lowerneck -16.512 -3.54312 -9.6543
upperneck 24.0299 -3.26755 4.22528
head 10.7092 -1.8255 2.69003
rclavicle -4.57205e-015 -9.54166e-015
rhumerus -29.1802 -10.4092 -78.3057
rradius 40.0095
rwrist 2.41905
rhand -14.104 14.1025
rfingers 7.12502
rthumb 12.0289 -15.5318
lclavicle -4.57205e-015 -9.54166e-015
lhumerus -36.5944 14.0748 83.4379
lradius 24.2629
lwrist -13.1612
lhand -14.0902 20.939
lfingers 7.12502
lthumb 12.0422 50.5725
rfemur 5.85793 3.08689 30.2315
rtibia 14.4502
rfoot -14.4704 -2.72232
rtoes 5.95638
lfemur -30.9102 -3.16109 -14.3877
ltibia 25.3149
lfoot -9.75214 9.63505
ltoes -3.75494
386
root 1.73954 17.3677 16.7905 -0.171795 36.9174 -3.99577
lowerback 5.57733 1.25807 3.44398
upperback 0.32056 1.98776 2.62764
thorax -2.77464 0.96947 0.620077
lowerneck -16.4994 -3.55827 -9.64999
upperneck 24.2154 -3.3154 4.31242
head 10.7801 -1.83862 2.71717
rclavicle -9.8299e-014 1.27222e-014
rhumerus -27.3622 -9.55372 -78.3267
rradius 38.0894
rwrist 1.04214
rhand -13.9218 14.1947
rfingers 7.12502
rthumb 12.2045 -15.4293
lclavicle -9.8299e-014 1.27222e-014
lhumerus -36.7102 14.3319 83.2374
lradius 23.984
lwrist -13.8305
lhand -14.3481 20.8541
lfingers 7.12502
lthumb 11.7935 50.502
rfemur 6.28663 3.26858 30.1005
rtibia 14.1006
rfoot -14.4274 -2.70526
rtoes 5.70905
lfemur -31.1583 -3.67779 -14.3029
ltibia 23.8327
lfoot -10.4023 9.03818
ltoes -4.20363
387
root 1.84371 17.3596 16.8936 -0.224392 36.5964 -4.38925
lowerback 5.43898 1.3388 3.9144
upperback 0.259343 2.12074 2.65787
thorax -2.74307 1.03011 0.381614
lowerneck -16.4971 -3.51272 -9.39383
upperneck 24.3009 -3.26869 4.10729
head 10.7986 -1.81914 2.60752
rclavicle -3.24516e-014 1.66979e-014
rhumerus -28.4164 -9.44355 -78.5446
rradius 38.8741
rwrist 0.894089
rhand -14.6283 14.4501
rfingers 7.12502
rthumb 11.5232 -15.2131
lclavicle -3.24516e-014 1.66979e-014
lhumerus -36.7178 14.376 83.1768
lradius 23.7129
lwrist -14.0346
lhand -14.1344 21.4773
lfingers 7.12502
lthumb 11.9995 51.1134
rfemur 6.76929 3.19384 30.3126
rtibia 13.8322
rfoot -14.3403 -2.34574
rtoes 4.28799
lfemur -31.3829 -4.56384 -13.5905
ltibia 22.7385
lfoot -11.1414 8.92163
ltoes -3.26305
388
root 1.94583 17.353 16.9983 -0.0391051 36.3411 -4.39327
lowerback 5.19692 1.40857 3.93974
upperback 0.273971 2.20166 2.71225
thorax -2.59176 1.073 0.424425
lowerneck -16.5853 -3.50745 -9.27204
upperneck 24.3136 -3.22175 3.86528
head 10.811 -1.81517 2.50502
rclavicle 8.64713e-015 -7.95139e-015
rhumerus -28.7794 -9.65727 -78.4963
rradius 39.4373
rwrist 1.29558
rhand -14.9577 14.5916
rfingers 7.12502
rthumb 11.2055 -15.0892
lclavicle 8.64713e-015 -7.95139e-015
lhumerus -36.6683 14.9917 83.0835
lradius 23.4642
lwrist -14.5882
lhand -13.9289 21.6131
lfingers 7.12502
lthumb 12.1977 51.2375
rfemur 7.07289 3.18433 30.2142
rtibia 13.9388
rfoot -14.4589 -2.18704
rtoes 2.94461
lfemur -31.5075 -5.62528 -13.1954
ltibia 21.7663
lfoot -11.7775 9.41801
ltoes -3.41588
389
root 2.04157 17.333 17.1108 -0.0621573 36.3206 -4.64353
lowerback 5.04977 1.39099 4.12124
upperback 0.221017 2.18382 2.75482
thorax -2.55938 1.06249 0.371789
lowerneck -16.5679 -3.51091 -9.17662
upperneck 24.2892 -3.23697 3.79493
head 10.7965 -1.82175 2.46098
rclavicle -1.46306e-013 0
rhumerus -28.8137 -9.92563 -78.4788
rradius 39.6071
rwrist 1.4239
rhand -14.2662 14.2159
rfingers 7.12502
rthumb 11.8724 -15.4275
lclavicle -1.46306e-013 0
lhumerus -36.6659 15.071 83.1322
lradius 23.3682
lwrist -14.5589
lhand -13.578 22.271
lfingers 7.12502
lthumb 12.536 51.875
rfemur 7.33211 3.25356 30.4338
rtibia 14.2322
rfoot -14.5479 -2.29944
rtoes 1.37241
lfemur -31.5967 -5.89804 -12.9526
ltibia 21.0553
lfoot -12.0993 9.38511
ltoes -5.74837
390
root 2.14187 17.3192 17.2283 0.380947 36.4315 -3.87082
lowerback 5.08814 1.33788 3.58448
upperback 0.0770232 2.07875 2.46116
thorax -2.73923 1.00976 0.372787
lowerneck -16.3412 -3.50106 -9.09386
upperneck 24.3146 -3.31597 3.96891
head 10.7676 -1.83109 2.50143
rclavicle -4.42793e-014 -2.78299e-014
rhumerus -29.0423 -9.92519 -78.701
rradius 39.6354
rwrist 1.15723
rhand -14.0381 13.8845
rfingers 7.12502
rthumb 12.0924 -15.7461
lclavicle -4.42793e-014 -2.78299e-014
lhumerus -36.9994 14.0149 83.386
lradius 23.6667
lwrist -13.4834
lhand -13.5843 22.4555
lfingers 7.12502
lthumb 12.5299 52.0598
rfemur 7.72608 3.26381 29.7335
rtibia 14.6462
rfoot -14.6895 -2.36138
rtoes -0.0966538
lfemur -31.4425 -5.60357 -13.9916
ltibia 20.6443
lfoot -12.0429 8.71293
ltoes -8.18418
391
root 2.23877 17.3094 17.337 0.43219 36.4988 -3.58924
lowerback 5.39927 1.22124 3.4488
upperback -0.0496497 1.9337 2.37191
thorax -3.0487 0.933228 0.357897
lowerneck -16.2689 -3.40204 -9.12661
upperneck 24.3764 -3.19679 4.05321
head 10.769 -1.7709 2.55637
rclavicle 7.85199e-014 7.95139e-015
rhumerus -29.0584 -9.85063 -78.8564
rradius 39.345
rwrist 1.18836
rhand -14.179 14.0857
rfingers 7.12502
rthumb 11.9565 -15.5528
lclavicle 7.85199e-014 7.95139e-015
lhumerus -37.3351 13.4899 83.507
lradius 23.8162
lwrist -12.7131
lhand -13.8835 21.2403
lfingers 7.12502
lthumb 12.2415 50.8621
rfemur 8.15686 3.36162 29.4654
rtibia 15.0991
rfoot -14.8005 -2.38774
rtoes -1.01224
lfemur -31.1868 -4.84156 -14.7618
ltibia 20.6119
lfoot -11.5865 7.48176
ltoes -8.07879
392
root 2.32989 17.296 17.4441 0.147963 36.6526 -3.98255
lowerback 5.55626 1.077 3.67295
upperback -0.0784791 1.77421 2.56381
thorax -3.16945 0.850885 0.439395
lowerneck -16.4679 -3.29355 -9.14475
upperneck 24.5672 -2.99879 3.97666
head 10.8628 -1.69227 2.5615
rclavicle -2.76808e-014 -1.59028e-014
rhumerus -28.9833 -9.54351 -78.8146
rradius 39.2945
rwrist 0.920385
rhand -14.2717 14.0699
rfingers 7.12502
rthumb 11.8671 -15.5738
lclavicle -2.76808e-014 -1.59028e-014
lhumerus -37.4758 13.88 83.4173
lradius 23.73
lwrist -13.2457
lhand -13.8848 20.0727
lfingers 7.12502
lthumb 12.2402 49.6945
rfemur 8.38395 3.44486 29.8515
rtibia 15.7658
rfoot -14.7884 -2.496
rtoes -2.1326
lfemur -31.0637 -3.60913 -15.0886
ltibia 20.7746
lfoot -10.4586 5.88256
ltoes -6.24829
393
root 2.42975 17.2855 17.5487 0.0259036 36.9163 -4.16668
lowerback 5.46004 0.976259 3.78416
upperback -0.0212761 1.6443 2.68158
thorax -3.05919 0.788074 0.51157
lowerneck -16.7163 -3.33926 -9.20864
upperneck 24.8118 -3.02943 4.00383
head 11.0069 -1.71 2.57972
rclavicle -9.2087e-014 7.95139e-015
rhumerus -28.2987 -9.4288 -78.6216
rradius 38.7036
rwrist 1.10276
rhand -14.2873 14.0042
rfingers 7.12502
rthumb 11.8521 -15.6404
lclavicle -9.2087e-014 7.95139e-015
lhumerus -37.47 14.1041 83.3582
lradius 23.6274
lwrist -13.7578
lhand -13.4403 18.9892
lfingers 7.12502
lthumb 12.6687 48.585
rfemur 8.54269 3.2216 29.9369
rtibia 16.5002
rfoot -14.8405 -2.51115
rtoes -6.57031
lfemur -31.0506 -2.21677 -15.7711
ltibia 21.2987
lfoot -9.276 4.36962
ltoes -4.38453
394
root 2.53272 17.2791 17.6514 0.150746 37.0526 -3.89323
lowerback 5.40447 0.934132 3.57538
upperback 0.0181158 1.56847 2.64975
thorax -2.99297 0.754224 0.602543
lowerneck -16.6984 -3.39849 -9.20012
upperneck 24.7484 -3.1022 3.94703
head 10.9846 -1.74876 2.5458
rclavicle 9.16894e-014 1.51076e-014
rhumerus -26.6493 -9.15392 -78.3839
rradius 37.1337
rwrist 0.979018
rhand -13.8658 13.651
rfingers 7.12502
rthumb 12.2585 -15.9697
lclavicle 9.16894e-014 1.51076e-014
lhumerus -37.3196 14.6508 83.1863
lradius 23.3355
lwrist -14.4548
lhand -13.3018 19.8492
lfingers 7.12502
lthumb 12.8022 49.4367
rfemur 8.65823 3.16004 29.6181
rtibia 17.3713
rfoot -14.9082 -2.45918
rtoes -10.1239
lfemur -31.0046 -1.80765 -16.4853
ltibia 22.044
lfoot -8.70251 3.9793
ltoes -5.68606
395
root 2.63127 17.2613 17.7599 -0.195153 37.0363 -4.10267
lowerback 5.61041 0.91391 3.727
upperback 0.066624 1.56295 2.68794
thorax -3.05581 0.749324 0.554401
lowerneck -16.5743 -3.41895 -9.15323
upperneck 24.6074 -3.1715 3.99941
head 10.9124 -1.76898 2.54582
rclavicle -2.34069e-014 -3.18055e-014
rhumerus -28.2621 -9.90642 -78.4649
rradius 38.5305
rwrist 1.50404
rhand -13.6894 13.6537
rfingers 7.12502
rthumb 12.4286 -15.9568
lclavicle -2.34069e-014 -3.18055e-014
lhumerus -37.0649 15.2995 83.0029
lradius 22.9605
lwrist -15.0931
lhand -13.0967 20.7337
lfingers 7.12502
lthumb 13 50.3086
rfemur 8.86593 3.20201 29.8042
rtibia 18.46
rfoot -14.878 -2.32767
rtoes -8.00119
lfemur -30.7296 -1.76445 -16.5768
ltibia 22.7926
lfoot -8.54516 4.26323
ltoes -8.88891
396
root 2.73088 17.243 17.8728 -0.66415 36.94 -4.388
lowerback 5.88518 0.969426 3.95393
upperback 0.142988 1.66688 2.71953
thorax -3.12416 0.797823 0.447402
lowerneck -16.5029 -3.5653 -9.20885
upperneck 24.582 -3.42003 4.18073
head 10.912 -1.8657 2.58534
rclavicle 5.64548e-014 -3.18055e-015
rhumerus -28.9521 -10.4268 -78.4423
rradius 39.0669
rwrist 1.45882
rhand -13.7726 13.7071
rfingers 7.12502
rthumb 12.3484 -15.9082
lclavicle 5.64548e-014 -3.18055e-015
lhumerus -36.8778 15.1862 83.1214
lradius 22.9056
lwrist -15.1442
lhand -12.8645 19.2577
lfingers 7.12502
lthumb 13.2238 48.8183
rfemur 9.05733 3.30714 30.0646
rtibia 19.6792
rfoot -14.7903 -2.0695
rtoes -3.40748
lfemur -30.2185 -2.14734 -16.3662
ltibia 23.4966
lfoot -8.5034 4.81098
ltoes -9.25487
